<svg xmlns="http://www.w3.org/2000/svg" xmlns:xlink="http://www.w3.org/1999/xlink" version="1.1" x="0px" y="0px" viewBox="0 0 64 80" style="enable-background:new 0 0 64 64;" xml:space="preserve"><g><path d="M63.91,42.89c0.02-1.48-0.47-3.54-2.91-5.02c-5.37-5.19-8.08-10.34-9.17-12.8c0.13-0.04,0.25-0.11,0.32-0.24   c1.31-2.62,1.63-6.86-0.65-10.13L61.94,1.93c0.16-0.19,0.15-0.47-0.02-0.65c-0.17-0.18-0.45-0.2-0.65-0.05L47.65,11.43   c-0.87-0.44-1.68-0.83-2.45-1.19c0.35-1.54,0.5-3.12,0.43-4.71c0-0.05,0-0.09-0.01-0.18c-0.05-0.95-0.18-1.64-0.24-1.96   c-0.03-0.16-0.05-0.25-0.05-0.25c-0.05-0.21-0.22-0.36-0.43-0.37c0,0-0.01,0-0.01,0c-0.01,0-0.02,0-0.04,0c-0.01,0-0.02,0-0.03,0   c-0.01,0-0.01,0-0.02,0.01c-0.05,0-0.09,0.02-0.13,0.03c-0.01,0-0.02,0.01-0.02,0.01c-0.04,0.02-0.07,0.04-0.11,0.07   c-0.01,0.01-0.02,0.02-0.03,0.03c-0.02,0.03-0.04,0.06-0.06,0.09c-0.01,0.02-0.02,0.03-0.03,0.05c0,0.01-0.01,0.01-0.01,0.02   c-0.01,0.03-1.18,2.9-5.05,4.86c-0.2-0.07-0.41-0.15-0.68-0.24C20,4.31,1.88,26.52,0.31,34.37c-0.65,3.28,0.11,7.65,2.24,12.9   c0.02,0.09,0.04,0.15,0.06,0.2l0,0c0,0,0,0,0,0.01c0.83,2.41,1.88,4.6,3.14,6.53c0.02,0.03,0.03,0.05,0.05,0.08   c0.02,0.04,0.04,0.07,0.06,0.12c0.02,0.05,0.07,0.08,0.1,0.11c3.5,5.17,8.37,8.05,14.49,8.56c0.01,0,0.03,0,0.04,0   c0.16,0,0.31-0.08,0.4-0.21c3.04-4.28,5.3-10.01,7.29-15.07c1.84-4.68,3.75-9.52,5.22-9.52c0.01,0,0.02,0,0.03,0   c1.33,0.06,3.08,1.3,5.1,2.73c2.93,2.07,6.57,4.65,11.36,5.63c1.22,0.62,1.36,1.18,1.53,1.89c0.3,1.19,0.74,2.16,3.39,3.03   c0.56,0.19,1.12,0.29,1.73,0.33c0.22,0.01,0.45,0.01,0.57,0c0.17,0.02,0.33,0,0.36-0.02c0.17-0.01,0.34-0.03,0.43-0.05   c0.29-0.04,0.56-0.11,0.8-0.18c0.13-0.04,0.24-0.07,0.32-0.1c0.11-0.03,0.21-0.07,0.31-0.11c0.11-0.04,0.21-0.08,0.37-0.16   c0.1-0.05,0.2-0.1,0.3-0.14l0,0c0.01,0,0.01-0.01,0.02-0.01l0,0c0,0,0,0,0,0c0,0,0,0,0.01,0c0.89-0.46,1.54-1.03,1.85-1.32   l0.16-0.16c0.02-0.02,0.05-0.05,0.07-0.08c0.05-0.05,0.09-0.11,0.12-0.18c0.53-1.48,1.38-3.97,1.45-4.75   C63.75,44.21,63.9,43.65,63.91,42.89C63.91,42.89,63.91,42.89,63.91,42.89C63.91,42.89,63.91,42.89,63.91,42.89z M62.9,43.34   c-0.01,0.05-0.01,0.1-0.02,0.15c-0.01,0.09-0.03,0.19-0.04,0.26c-0.01,0.03-0.01,0.07-0.02,0.1c-0.02,0.08-0.03,0.14-0.04,0.19   c0,0.01-0.01,0.03-0.01,0.04c-0.01,0.05-0.02,0.08-0.02,0.08c-0.02,0.07-0.03,0.12-0.02,0.19c0,0.04-0.01,0.11-0.03,0.2   c-0.01,0.03-0.02,0.06-0.02,0.1c-0.02,0.07-0.03,0.14-0.06,0.23c-0.01,0.04-0.02,0.09-0.04,0.14c-0.03,0.1-0.06,0.2-0.09,0.31   c-0.01,0.05-0.03,0.1-0.04,0.15c-0.04,0.14-0.09,0.29-0.14,0.44c-0.01,0.03-0.02,0.06-0.03,0.08c-0.17,0.55-0.38,1.18-0.6,1.82   c-0.25-1.06-0.48-2.39-0.29-3.01c0.2-0.66,0.61-1.21,1.07-1.45c0.1-0.05,0.24-0.11,0.4-0.11c0.02,0,0.03,0,0.05,0   C62.9,43.27,62.9,43.31,62.9,43.34z M51.96,22.42c-0.47-2.04-1.61-3.72-3.33-4.85c0,0,0,0,0,0c-0.02-0.02-0.03-0.04-0.05-0.05   c-0.06-0.05-0.12-0.07-0.18-0.09c-0.72-0.45-1.52-0.81-2.39-1.05c-0.9-0.26-1.71-0.7-2.52-1.36c-0.05-0.04-0.1-0.08-0.15-0.12   c0.05-0.08,0.09-0.16,0.13-0.23c0.06-0.09,0.12-0.19,0.17-0.28l0.09-0.18c0.01-0.03,0.03-0.06,0.07-0.14l0.05-0.09   c0.09-0.19,0.19-0.37,0.27-0.55c0.17-0.36,0.32-0.73,0.45-1.08c0.07-0.19,0.14-0.38,0.2-0.55c0.07-0.19,0.13-0.39,0.19-0.57   c0.74,0.34,1.5,0.72,2.33,1.14c0.04,0.02,0.09,0.05,0.16,0.09c0,0,0.01,0,0.01,0c0.01,0,0.01,0,0.01,0.01   c1.25,0.66,2.27,1.5,3.03,2.51C52.23,17.24,52.48,20.1,51.96,22.42z M51.05,22.95c-0.12-0.42-0.3-1.02-0.52-1.66   C50.79,21.86,50.95,22.42,51.05,22.95z M44.66,5.95c0.02,1.12-0.06,2.7-0.49,4.43c0,0.01-0.01,0.02-0.02,0.04l-0.08,0.3   c-0.04,0.1-0.06,0.18-0.07,0.22c-0.05,0.16-0.1,0.34-0.17,0.52c-0.06,0.17-0.12,0.35-0.19,0.54c-0.12,0.33-0.25,0.67-0.42,1   c-0.08,0.17-0.17,0.35-0.26,0.54l-0.05,0.09c-0.02,0.04-0.05,0.08-0.08,0.13c-0.01,0.02-0.05,0.09-0.06,0.11   c-0.04,0.08-0.08,0.17-0.16,0.29c-0.1,0.19-0.21,0.37-0.33,0.56c-0.02,0.03-0.04,0.07-0.05,0.1c-0.23,0.47-0.5,0.86-0.69,1.1   c-0.02,0.02-0.03,0.04-0.04,0.07c-0.86,1.11-2.31,2.27-4.37,1.62c-0.01-0.01-0.28-0.14-0.39-0.47c-0.1-0.29-0.04-0.66,0.16-1.1   C41.69,12.23,43.76,8.4,44.66,5.95z M50.88,13.9c-0.64-0.74-1.42-1.39-2.3-1.93l10.04-7.53L50.88,13.9z M1.28,34.56   C2.79,27,20.13,5.7,38.01,8.58c-0.02,0.01-0.04,0.02-0.06,0.03c-0.47,0.24-0.9,0.49-1.33,0.77c-0.19,0.13-0.38,0.26-0.63,0.45   c0.04-0.04,0.07-0.06,0.08-0.06c-0.03,0.02-0.12,0.08-0.15,0.11c-0.16,0.13-0.32,0.26-0.54,0.43c-0.07,0.06-0.13,0.11-0.18,0.16   c-0.08,0.05-0.15,0.11-0.22,0.18c-0.02,0.01-0.04,0.03-0.06,0.05c-0.24,0.22-0.45,0.44-0.65,0.65c-1.18,0.5-2.29,1.39-3.39,2.73   c-0.01,0.02-0.03,0.03-0.04,0.05c-0.03,0.03-0.06,0.07-0.07,0.1c-0.03,0.02-0.05,0.05-0.07,0.08c0,0.01-0.01,0.01-0.02,0.02   c-0.02,0.02-0.04,0.05-0.05,0.07c-0.01,0.01-0.01,0.02-0.02,0.04c-0.01,0.01-0.02,0.02-0.02,0.04c0,0-0.01,0.01-0.01,0.01   c-1.68,2.35-3.02,5.72-3.98,10.02c-1.17,5.29-2.87,9.56-5.18,13c-0.01-1.09-0.07-2.25-0.18-3.54c0,0,0,0,0,0   c-0.03-0.39-0.06-0.78-0.1-1.17l-0.02-0.2c-0.19-2.22-0.38-4.32-0.19-6.44c0.17-2.13,0.73-4.24,1.66-6.26   c0.01-0.02,0.01-0.03,0.01-0.05c0.01-0.03,0.02-0.07,0.02-0.1c0-0.03,0-0.06,0-0.09c0-0.03-0.01-0.06-0.02-0.1   c-0.01-0.03-0.02-0.06-0.03-0.09c-0.01-0.03-0.03-0.05-0.05-0.08c-0.02-0.03-0.04-0.05-0.07-0.07c-0.01-0.01-0.02-0.03-0.04-0.04   c-0.01-0.01-0.03-0.01-0.04-0.02c-0.01-0.01-0.02-0.02-0.04-0.03c-0.02-0.01-0.03-0.01-0.05-0.01c-0.03-0.01-0.06-0.02-0.1-0.02   c-0.03,0-0.06,0-0.09,0c-0.03,0-0.06,0.01-0.09,0.01c-0.03,0.01-0.06,0.02-0.09,0.03c-0.03,0.01-0.05,0.03-0.08,0.05   c-0.03,0.02-0.05,0.04-0.07,0.07c-0.01,0.01-0.03,0.02-0.04,0.04c-1.38,1.96-2.38,4.1-2.98,6.36c-0.68,2.43-0.93,4.98-1.08,6.93   c-0.59,8.09-2,11.88-6.13,15.9c-0.02-0.82-0.06-1.66-0.12-2.52c0-0.01-0.01-0.1-0.01-0.11l-0.01-0.09c0-0.02,0-0.07-0.01-0.11   c0-0.06,0-0.13-0.01-0.14l-0.11-1.39c0,0-0.01-0.13-0.01-0.13c-0.19-2.23-0.38-4.33-0.2-6.46c0.17-2.11,0.73-4.22,1.67-6.27   c0.01-0.02,0.01-0.04,0.01-0.05c0.01-0.03,0.02-0.06,0.02-0.1c0-0.03,0-0.06,0-0.09c0-0.03-0.01-0.06-0.02-0.09   c-0.01-0.03-0.02-0.06-0.03-0.09c-0.01-0.03-0.03-0.05-0.05-0.08c-0.02-0.03-0.04-0.05-0.07-0.07c-0.01-0.01-0.02-0.03-0.04-0.04   c-0.01-0.01-0.03-0.01-0.04-0.02c-0.01-0.01-0.02-0.02-0.04-0.03c-0.02-0.01-0.04-0.01-0.05-0.01c-0.03-0.01-0.06-0.02-0.09-0.02   c-0.03,0-0.06,0-0.09,0c-0.03,0-0.06,0.01-0.09,0.02c-0.03,0.01-0.06,0.02-0.09,0.03c-0.03,0.01-0.05,0.03-0.08,0.05   c-0.03,0.02-0.05,0.04-0.07,0.07c-0.01,0.01-0.03,0.02-0.04,0.04c-1.37,1.96-2.38,4.1-2.99,6.36c-0.34,1.23-0.73,4.33-1.12,7.32   c-0.33,2.61-0.65,5.08-0.89,6.01c-0.19,0.76-0.43,1.51-0.69,2.25c-1.04-1.7-1.94-3.61-2.69-5.76l0,0l0,0c0,0,0-0.01,0-0.01   c-0.01-0.03-0.02-0.06-0.03-0.08l0.01-0.01C1.4,41.83,0.66,37.65,1.28,34.56z M52.39,48.08c-0.2-0.81-0.43-1.72-2.1-2.55   c-0.04-0.02-0.08-0.03-0.12-0.04c-4.62-0.93-8.19-3.45-11.05-5.48c-2.24-1.58-4.01-2.83-5.62-2.91c-0.03,0-0.05,0-0.08,0   c-2.14,0-3.82,4.26-6.13,10.14c-1.94,4.92-4.13,10.48-7.01,14.63c-5.65-0.55-10.16-3.25-13.39-7.98l0.01-0.02   c0.38-0.96,0.71-1.98,0.97-3.04c0.25-0.99,0.57-3.49,0.91-6.13c0.38-2.96,0.77-6.03,1.09-7.19c0.12-0.44,0.27-0.88,0.42-1.31   c-0.07,0.46-0.14,0.91-0.17,1.37c-0.19,2.2,0,4.35,0.2,6.62l0.49-0.04l-0.48,0.17l0.13,1.56c0,0.02,0.01,0.13,0.01,0.15l0.01,0.13   c0.09,1.23,0.14,2.43,0.13,3.57c0,0.19,0.11,0.37,0.29,0.45c0.06,0.03,0.13,0.04,0.2,0.04c0.12,0,0.24-0.04,0.33-0.13   c4.92-4.48,6.62-8.53,7.26-17.32c0.14-1.9,0.39-4.39,1.05-6.74c0.12-0.45,0.27-0.89,0.42-1.33c-0.07,0.46-0.14,0.92-0.17,1.38   c-0.2,2.2-0.01,4.34,0.19,6.61l0.02,0.21c0.04,0.38,0.07,0.76,0.1,1.15c0,0,0,0,0,0c0,0,0,0,0,0c0.16,1.9,0.21,3.49,0.16,5.01   c-0.01,0.21,0.12,0.41,0.33,0.48c0.05,0.02,0.11,0.03,0.16,0.03c0.15,0,0.3-0.07,0.39-0.19c2.86-3.76,4.9-8.55,6.25-14.64   c0.94-4.19,2.23-7.45,3.85-9.7c0.01-0.01,0.01-0.02,0.02-0.03c0,0,0,0,0,0c0,0,0,0,0,0c0,0,0,0,0,0c0,0,0,0,0,0   c0.01-0.01,0.02-0.03,0.03-0.04c0.01-0.02,0.03-0.03,0.04-0.05c0,0,0-0.01,0.01-0.01c0,0,0,0,0,0c0.01-0.02,0.03-0.03,0.04-0.05   c0.03-0.03,0.05-0.06,0.07-0.09c0,0,0.01-0.01,0.01-0.02c0.01-0.01,0.02-0.03,0.03-0.04c1.02-1.24,2.03-2.04,3.09-2.47   c0,0,0.01,0,0.01,0c0,0,0,0,0,0c0.02-0.01,0.08-0.04,0.09-0.04c0.05-0.03,0.1-0.06,0.13-0.1c0.19-0.21,0.4-0.42,0.63-0.63   l0.25-0.23c0.05-0.05,0.11-0.1,0.18-0.17c0.15-0.12,0.32-0.25,0.47-0.38c0.02-0.01,0.1-0.06,0.12-0.08   c0.17-0.12,0.36-0.25,0.53-0.37c0.39-0.26,0.8-0.49,1.24-0.71c0.22-0.11,0.45-0.23,0.69-0.33c0.08-0.04,0.15-0.08,0.23-0.12   c0.02-0.01,0.05-0.02,0.07-0.03c0,0,0.01,0,0.01-0.01c1.92-0.91,3.26-2.01,4.17-3c-0.94,2.35-2.97,5.86-7.35,9.32   c-0.06,0.04-0.1,0.1-0.13,0.16c-0.37,0.73-0.46,1.4-0.26,1.97c0.25,0.71,0.84,1,0.96,1.05c0.55,0.17,1.06,0.25,1.53,0.25   c1.96,0,3.3-1.29,3.99-2.21c0.03-0.03,0.05-0.07,0.07-0.11c0.13-0.18,0.29-0.42,0.46-0.7c0.01,0.01,0.02,0.02,0.03,0.03   c0.88,0.73,1.84,1.24,2.86,1.54c0.82,0.23,1.58,0.57,2.24,1c0.01,0.01,0.03,0.02,0.04,0.02c0.02,0.02,0.04,0.04,0.06,0.05   c0.85,0.84,1.88,4.2,2.2,5.45c0.1,0.3,2.46,7.42,10.08,14.77c0.03,0.03,0.06,0.05,0.09,0.07c1.76,1.05,2.32,2.44,2.45,3.58   c-0.3,0-0.6,0.06-0.9,0.22c-0.69,0.36-1.27,1.12-1.55,2.03c-0.37,1.21,0.29,3.7,0.55,4.57c-0.22,0.19-0.53,0.43-0.91,0.68   l-3.18-6.38c-0.53-1.05-1.82-1.47-2.87-0.95c-0.51,0.26-0.89,0.7-1.07,1.24c-0.18,0.54-0.13,1.12,0.12,1.62l2.65,5.3   c-0.2-0.04-0.4-0.09-0.59-0.15C52.79,49.65,52.6,48.92,52.39,48.08z M58.72,50.4c-0.08,0.03-0.16,0.06-0.26,0.08   c-0.21,0.06-0.44,0.12-0.73,0.16c-0.09,0.02-0.2,0.03-0.38,0.05c-0.05,0.01-0.09,0.01-0.19,0.01c-0.09,0-0.18,0-0.27,0l-2.93-5.87   c-0.14-0.27-0.16-0.58-0.07-0.87c0.1-0.29,0.3-0.53,0.57-0.67c0.17-0.08,0.35-0.12,0.52-0.12c0.42,0,0.82,0.23,1.03,0.64l3.18,6.41   c-0.05,0.02-0.11,0.05-0.19,0.08C58.93,50.33,58.84,50.36,58.72,50.4z"/><path d="M46.78,22.48H43.5c-0.18,0-0.35,0.1-0.44,0.27c-0.08,0.16-0.07,0.36,0.04,0.51c0.94,1.3,2.67,3.49,3.68,3.49   c1.17,0,2.13-0.96,2.13-2.14C48.91,23.43,47.95,22.48,46.78,22.48z M46.79,25.77c-0.33-0.05-1.32-1.06-2.3-2.31h2.29   c0.63,0,1.15,0.51,1.15,1.15C47.93,25.26,47.42,25.77,46.79,25.77z"/></g><text x="0" y="79" fill="#000000" font-size="5px" font-weight="bold" font-family="'Helvetica Neue', Helvetica, Arial-Unicode, Arial, Sans-serif">Created by rahmat</text><text x="0" y="84" fill="#000000" font-size="5px" font-weight="bold" font-family="'Helvetica Neue', Helvetica, Arial-Unicode, Arial, Sans-serif">from the Noun Project</text></svg>